<svg viewBox="0 0 512 512" width="512px&quot; height=&quot;512px&quot; viewBox=&quot;0 0 512 512" xmlns="http://www.w3.org/2000/svg">
  <g x="256&quot; y=&quot;256" style="">
    <title>Logo</title>
    <path fill="#0469B2" opacity="1.000000" stroke="none" d="M 375.569 458.226 C 375.569 458.226 375.525 458.124 375.548 457.96 C 375.378 457.462 375.187 457.126 374.994 456.788 C 374.994 456.788 374.949 456.686 374.953 456.538 C 374.874 456.234 374.79 456.08 374.707 455.924 C 374.707 455.924 374.661 455.822 374.679 455.661 C 374.507 455.164 374.319 454.826 374.131 454.487 C 374.131 454.487 374.085 454.384 374.105 454.223 C 373.933 453.725 373.744 453.387 373.556 453.051 C 373.556 453.051 373.51 452.945 373.532 452.784 C 373.362 452.287 373.172 451.95 372.98 451.613 C 372.98 451.613 372.935 451.509 372.958 451.349 C 372.789 450.848 372.598 450.51 372.406 450.174 C 372.406 450.174 372.359 450.071 372.386 449.911 C 372.217 449.411 372.023 449.075 371.831 448.736 C 371.831 448.736 371.784 448.633 371.791 448.483 C 371.712 448.184 371.628 448.03 371.541 447.875 C 371.541 447.875 371.499 447.77 371.517 447.609 C 371.344 447.11 371.156 446.773 370.968 446.436 C 370.968 446.436 370.923 446.331 370.943 446.17 C 370.77 445.673 370.582 445.335 370.393 444.998 C 370.393 444.998 370.347 444.895 370.37 444.734 C 370.199 444.236 370.01 443.896 369.818 443.559 C 369.818 443.559 369.772 443.457 369.795 443.296 C 369.626 442.797 369.434 442.46 369.243 442.124 C 369.243 442.124 369.197 442.018 369.221 441.857 C 369.054 441.359 368.861 441.022 368.668 440.686 C 368.668 440.686 368.622 440.581 368.65 440.412 C 368.385 439.622 368.096 439.004 367.804 438.384 C 367.804 438.384 367.759 438.279 367.78 438.119 C 367.611 437.621 367.419 437.285 367.229 436.945 C 367.229 436.945 367.184 436.843 367.207 436.682 C 367.038 436.183 366.847 435.846 366.653 435.508 C 366.653 435.508 366.609 435.404 366.633 435.23 C 365.795 433.002 364.929 430.947 364.066 428.894 C 364.066 428.894 364.022 428.79 364.045 428.616 C 363.94 427.935 363.865 427.407 363.677 426.924 C 356.433 408.435 349.182 389.953 341.915 371.475 C 341.735 371.019 341.348 370.643 341.062 370.229 C 341.062 370.229 341.014 370.124 341.039 369.951 C 340.2 367.723 339.336 365.669 338.471 363.614 C 338.471 363.614 338.427 363.51 338.451 363.349 C 338.28 362.852 338.09 362.514 337.896 362.177 C 337.896 362.177 337.852 362.072 337.877 361.911 C 337.708 361.414 337.515 361.075 337.321 360.738 C 337.321 360.738 337.276 360.636 337.304 360.467 C 337.039 359.676 336.749 359.059 336.458 358.437 C 336.458 358.437 336.413 358.334 336.432 358.174 C 336.263 357.676 336.075 357.337 335.883 357 C 335.883 357 335.837 356.895 335.86 356.735 C 335.689 356.237 335.499 355.899 335.309 355.563 C 335.309 355.563 335.264 355.457 335.286 355.297 C 335.116 354.799 334.925 354.463 334.734 354.124 C 334.734 354.124 334.689 354.022 334.713 353.861 C 334.544 353.36 334.349 353.023 334.159 352.686 C 334.159 352.686 334.114 352.584 334.118 352.436 C 334.039 352.132 333.954 351.978 333.871 351.822 C 333.871 351.822 333.825 351.72 333.843 351.559 C 333.672 351.062 333.483 350.724 333.296 350.386 C 333.296 350.386 333.25 350.282 333.245 350.134 C 333.148 349.83 333.057 349.676 332.968 349.519 C 328.575 349.422 324.182 349.359 319.79 349.219 C 315.029 349.069 310.271 348.846 305.51 348.654 C 300.703 348.461 295.894 348.268 291.087 348.076 C 286.23 347.883 281.374 347.695 276.518 347.501 C 271.665 347.309 266.813 347.118 261.959 346.929 C 257.007 346.734 252.057 346.544 247.106 346.353 C 242.108 346.159 237.109 345.97 232.109 345.778 C 227.205 345.589 222.302 345.395 217.399 345.202 C 212.496 345.011 207.592 344.824 202.688 344.624 C 200.689 344.542 198.693 344.44 196.697 344.322 C 196.501 344.311 196.317 344.133 196.182 343.853 C 196.472 343.264 196.743 342.864 196.935 342.432 C 202.199 330.673 207.457 318.91 212.712 307.147 C 217.459 296.523 222.208 285.897 226.941 275.265 C 227.297 274.465 227.702 273.928 228.705 273.882 C 238.412 273.425 248.134 273.105 257.823 272.382 C 266.074 271.764 274.305 270.797 282.508 269.72 C 285.318 269.349 288.073 268.311 290.76 267.332 C 292.677 266.632 293.081 265.69 292.619 263.697 C 292.167 261.743 291.511 259.834 290.893 257.923 C 290.774 257.551 290.411 257.255 290.159 256.925 C 290.159 256.925 290.114 256.82 290.137 256.647 C 289.777 255.666 289.393 254.857 289.01 254.049 C 289.01 254.049 288.963 253.944 288.987 253.777 C 288.724 253.086 288.435 252.56 288.147 252.036 C 288.147 252.036 288.101 251.93 288.124 251.761 C 287.764 250.877 287.379 250.161 286.997 249.447 C 286.997 249.447 286.95 249.343 286.974 249.172 C 286.325 247.71 285.655 246.422 284.983 245.133 C 284.983 245.133 284.938 245.034 284.887 244.929 C 284.789 244.737 284.743 244.648 284.695 244.558 C 284.695 244.558 284.65 244.455 284.673 244.283 C 283.894 242.329 283.122 240.534 282.268 238.776 C 282.011 238.251 281.529 237.837 281.151 237.371 C 281.151 237.371 281.207 237.373 281.204 237.307 C 281.099 237.08 281 236.922 280.902 236.765 C 280.902 236.765 280.951 236.776 280.917 236.733 C 280.81 236.63 280.738 236.568 280.665 236.505 C 280.665 236.505 280.622 236.404 280.571 236.302 C 280.475 236.11 280.428 236.021 280.383 235.933 C 280.383 235.933 280.338 235.832 280.286 235.727 C 280.187 235.533 280.14 235.445 280.095 235.358 C 280.095 235.358 280.05 235.257 279.998 235.151 C 279.9 234.96 279.853 234.869 279.807 234.782 C 279.807 234.782 279.763 234.681 279.711 234.577 C 279.612 234.385 279.565 234.294 279.52 234.207 C 279.52 234.207 279.474 234.106 279.421 234.002 C 279.322 233.812 279.278 233.722 279.232 233.632 C 279.232 233.632 279.189 233.527 279.131 233.429 C 279.032 233.241 278.989 233.148 278.946 233.057 C 278.946 233.057 278.902 232.952 278.845 232.854 C 278.747 232.665 278.704 232.573 278.66 232.482 C 278.66 232.482 278.618 232.373 278.522 232.341 C 278.419 232.18 278.41 232.051 278.398 231.92 C 278.398 231.92 278.346 231.79 278.255 231.742 C 278.148 231.577 278.131 231.461 278.113 231.347 C 278.113 231.347 278.061 231.215 277.967 231.167 C 277.86 231.003 277.846 230.888 277.831 230.773 C 276.398 228.154 274.964 225.534 273.443 222.776 C 273.318 222.555 273.263 222.481 273.197 222.418 C 273.197 222.418 273.153 222.309 273.149 222.149 C 272.938 221.749 272.731 221.506 272.523 221.263 C 272.523 221.263 272.582 221.24 272.558 221.205 C 272.465 221.104 272.397 221.041 272.327 220.975 C 272.327 220.975 272.285 220.877 272.238 220.768 C 272.141 220.574 272.09 220.489 272.041 220.403 C 272.041 220.403 271.998 220.297 271.998 220.137 C 271.788 219.738 271.58 219.496 271.37 219.253 C 271.37 219.253 271.428 219.228 271.407 219.191 C 271.314 219.09 271.246 219.029 271.177 218.964 C 271.177 218.964 271.134 218.863 271.086 218.756 C 270.989 218.563 270.941 218.474 270.89 218.389 C 270.89 218.389 270.847 218.285 270.856 218.12 C 270.557 217.527 270.245 217.099 269.935 216.669 C 269.935 216.669 269.99 216.642 269.967 216.603 C 269.876 216.505 269.807 216.438 269.741 216.375 C 269.741 216.375 269.696 216.271 269.696 216.113 C 269.486 215.711 269.279 215.467 269.071 215.222 C 269.071 215.222 269.131 215.198 269.105 215.167 C 269.012 215.067 268.944 215.003 268.878 214.936 C 268.878 214.936 268.836 214.837 268.786 214.732 C 268.689 214.539 268.641 214.451 268.594 214.364 C 268.594 214.364 268.553 214.251 268.469 214.198 C 268.371 214.032 268.355 213.918 268.341 213.804 C 261.362 201.932 254.075 190.271 244.932 179.683 C 244.772 179.455 244.737 179.344 244.701 179.232 C 244.701 179.232 244.741 179.293 244.725 179.192 C 243.774 175.787 244.256 172.542 245.11 169.312 C 246.48 164.125 248.71 159.309 251.519 154.764 C 258.298 143.79 266.769 134.479 278.214 128.212 C 289.726 121.909 301.683 120.607 314.082 125.397 C 323.617 129.08 331.187 135.469 337.971 142.908 C 344.429 149.986 349.759 157.877 354.59 166.126 C 354.886 166.632 355.38 167.025 355.784 167.469 C 355.784 167.469 355.729 167.498 355.752 167.532 C 355.845 167.63 355.911 167.696 355.978 167.76 C 355.978 167.76 356.025 167.862 356.08 167.963 C 356.179 168.154 356.222 168.245 356.264 168.335 C 356.264 168.335 356.31 168.437 356.369 168.537 C 356.469 168.727 356.51 168.818 356.553 168.91 C 356.553 168.91 356.6 169.017 356.604 169.161 C 356.682 169.458 356.752 169.61 356.82 169.764 C 360.318 176.836 363.833 183.9 367.302 190.984 C 369.321 195.102 371.278 199.249 373.239 203.396 C 377.486 212.367 381.718 221.344 385.953 230.322 C 388.958 236.693 391.967 243.06 394.959 249.437 C 398.673 257.344 402.375 265.26 406.085 273.172 C 408.892 279.161 411.709 285.146 414.517 291.137 C 418.228 299.049 421.937 306.967 425.646 314.88 C 428.372 320.698 431.114 326.508 433.826 332.332 C 438.29 341.928 442.726 351.537 447.188 361.133 C 449.795 366.742 452.447 372.334 455.046 377.948 C 459.075 386.649 463.083 395.361 467.09 404.075 C 471.331 413.298 475.563 422.525 479.79 431.755 C 482.286 437.206 484.775 442.659 487.248 448.119 C 489.038 452.068 490.798 456.029 492.649 460.151 C 492.024 460.183 491.527 460.23 491.026 460.23 C 464.331 460.234 437.634 460.26 410.94 460.218 C 399.886 460.202 388.829 460.047 377.779 459.925 C 377.29 459.919 376.804 459.61 376.213 459.273 C 375.93 458.809 375.749 458.517 375.569 458.226 Z" style=""></path>
    <path fill="#0469B2" opacity="1.000000" stroke="none" d="M 221.426 180.213 C 221.343 180.336 221.258 180.46 221.096 180.711 C 220.962 180.917 220.907 180.997 220.853 181.076 C 220.769 181.2 220.686 181.322 220.522 181.575 C 220.387 181.78 220.332 181.86 220.278 181.94 C 220.193 182.061 220.11 182.186 219.946 182.437 C 219.812 182.644 219.757 182.723 219.702 182.801 C 219.618 182.925 219.535 183.049 219.352 183.278 C 219.205 183.462 219.152 183.544 219.101 183.624 C 219.101 183.624 219.123 183.564 219.056 183.611 C 218.843 183.947 218.697 184.236 218.552 184.526 C 218.552 184.526 218.563 184.64 218.497 184.754 C 218.373 184.946 218.32 185.021 218.267 185.102 C 218.18 185.227 218.097 185.348 217.914 185.576 C 217.766 185.764 217.714 185.845 217.665 185.926 C 217.665 185.926 217.688 185.866 217.617 185.912 C 217.403 186.245 217.26 186.536 217.113 186.826 C 217.113 186.826 217.124 186.942 217.058 187.053 C 216.936 187.244 216.881 187.323 216.827 187.403 C 216.744 187.525 216.658 187.65 216.475 187.878 C 216.328 188.062 216.275 188.143 216.227 188.225 C 216.227 188.225 216.246 188.165 216.18 188.214 C 215.966 188.55 215.82 188.837 215.675 189.126 C 215.675 189.126 215.688 189.24 215.602 189.331 C 215.464 189.501 215.414 189.581 215.363 189.663 C 215.363 189.663 215.387 189.604 215.318 189.649 C 215.104 189.984 214.958 190.276 214.811 190.565 C 214.811 190.565 214.825 190.679 214.739 190.77 C 214.602 190.939 214.551 191.02 214.5 191.102 C 214.5 191.102 214.528 191.044 214.454 191.084 C 214.14 191.608 213.902 192.094 213.663 192.578 C 213.663 192.578 213.675 192.692 213.589 192.781 C 213.451 192.95 213.401 193.033 213.351 193.115 C 213.351 193.115 213.381 193.063 213.304 193.096 C 212.993 193.615 212.759 194.094 212.523 194.573 C 212.523 194.573 212.521 194.524 212.446 194.55 C 212.039 195.244 211.708 195.918 211.374 196.586 C 211.374 196.586 211.373 196.539 211.3 196.562 C 210.885 197.04 210.488 197.459 210.219 197.949 C 198.022 220.027 186.943 242.671 176.636 265.673 C 161.199 300.129 146.175 334.771 130.98 369.337 C 130.74 369.886 130.576 370.468 130.33 371.17 C 130.874 371.255 131.235 371.352 131.598 371.361 C 135.567 371.469 139.537 371.563 143.508 371.66 C 147.383 371.755 151.257 371.847 155.129 371.939 C 163.263 372.135 171.395 372.326 179.526 372.523 C 187.323 372.71 195.118 372.905 202.916 373.09 C 211.193 373.287 219.468 373.476 227.744 373.673 C 235.452 373.857 243.157 374.058 250.864 374.237 C 255.743 374.351 260.624 374.452 265.505 374.531 C 267.767 374.569 267.784 374.547 267.124 376.66 C 264.397 385.374 260.823 393.738 256.654 401.848 C 249.212 416.322 240.068 429.531 227.865 440.466 C 217.624 449.644 206.027 456.315 192.607 459.595 C 189.216 460.421 185.754 460.952 182.326 461.619 C 176.644 461.732 170.961 461.903 165.278 461.936 C 161.795 461.958 158.315 461.767 154.833 461.67 C 151.4 461.576 147.967 461.477 144.538 461.38 C 141.101 461.286 137.668 461.191 134.232 461.094 C 130.893 461.001 127.558 460.91 124.219 460.805 C 121.46 460.718 118.698 460.624 115.935 460.519 C 110.892 460.331 105.847 460.151 100.805 459.939 C 96.86 459.772 92.914 459.579 88.973 459.365 C 83.991 459.094 79.005 458.841 74.029 458.488 C 69.583 458.175 65.129 457.864 60.71 457.325 C 52.885 456.37 45.053 455.422 37.28 454.126 C 31.759 453.207 26.36 451.613 21.274 449.167 C 13.699 445.527 9.302 439.348 7.513 431.3 C 6.819 428.18 6.23 424.909 6.411 421.757 C 6.696 416.881 7.303 411.954 8.466 407.217 C 10.205 400.151 12.26 393.128 14.705 386.274 C 18.306 376.168 22.296 366.197 26.262 356.221 C 29.391 348.342 32.624 340.502 36.009 332.732 C 39.434 324.859 43.098 317.087 46.665 309.275 C 47.167 308.171 47.7 307.079 48.357 305.859 C 48.829 305.277 49.211 304.844 49.488 304.352 C 55.151 294.247 61.776 284.788 69.118 275.854 C 84.327 257.352 101.903 241.339 121.174 227.182 C 141.586 212.186 163.25 199.278 186.256 188.65 C 195.706 184.284 205.291 180.262 215.312 177.385 C 217.373 176.796 219.519 176.484 221.643 176.147 C 222.622 175.99 223.382 176.343 223.144 177.59 C 222.686 178.285 222.229 178.984 221.683 179.83 C 221.538 180.057 221.482 180.135 221.426 180.213 Z" style=""></path>
    <path fill="#0095FF" opacity="1.000000" stroke="none" d="M 223.237 177.547 C 223.382 176.343 222.622 175.99 221.643 176.147 C 219.519 176.484 217.373 176.796 215.312 177.385 C 205.291 180.262 195.706 184.284 186.256 188.65 C 163.25 199.278 141.586 212.186 121.174 227.182 C 101.903 241.339 84.327 257.352 69.118 275.854 C 61.776 284.788 55.151 294.247 49.488 304.352 C 49.211 304.844 48.829 305.277 48.404 305.767 C 49.168 303.788 49.982 301.761 50.887 299.776 C 53.756 293.483 56.639 287.197 59.551 280.926 C 62.19 275.246 64.875 269.59 67.533 263.923 C 70.613 257.364 73.665 250.793 76.77 244.248 C 79.357 238.794 81.988 233.363 84.63 227.937 C 86.966 223.135 89.341 218.349 91.703 213.562 C 96.72 203.401 101.706 193.225 106.775 183.09 C 109.937 176.766 113.193 170.488 116.474 164.224 C 120.055 157.382 123.683 150.566 127.34 143.765 C 130.753 137.422 134.157 131.074 137.695 124.803 C 141.828 117.479 146.005 110.176 150.335 102.97 C 154.546 95.967 158.807 88.984 163.367 82.207 C 166.216 77.971 169.518 74.006 172.875 70.146 C 175.944 66.62 179.264 63.297 182.644 60.06 C 189.045 53.924 195.866 48.263 203.444 43.629 C 209.162 40.134 215.377 37.644 221.834 35.866 C 228.234 34.106 234.816 33.585 241.402 34.104 C 247.772 34.603 253.825 36.485 259.705 39.054 C 266.128 41.86 271.904 45.692 277.185 50.138 C 282.535 54.647 287.589 59.568 292.344 64.705 C 297.104 69.849 301.456 75.389 305.754 80.937 C 308.79 84.853 311.526 89.009 314.239 93.159 C 318.329 99.416 322.379 105.703 326.263 112.09 C 329.27 117.038 332.079 122.115 334.831 127.214 C 339.895 136.6 344.882 146.027 349.842 155.469 C 351.883 159.356 353.762 163.33 355.75 167.367 C 355.38 167.025 354.886 166.632 354.59 166.126 C 349.759 157.877 344.429 149.986 337.971 142.908 C 331.187 135.469 323.617 129.08 314.082 125.397 C 301.683 120.607 289.726 121.909 278.214 128.212 C 266.769 134.479 258.298 143.79 251.519 154.764 C 248.71 159.309 246.48 164.125 245.11 169.312 C 244.256 172.542 243.774 175.787 244.696 179.211 C 241.379 176.436 238.157 173.442 234.749 170.679 C 232.599 168.937 230.44 169.161 228.528 171.208 C 226.67 173.191 225.049 175.396 223.237 177.547 Z" style=""></path>
    <path fill="#0095FF" opacity="1.000000" stroke="none" d="M 182.459 461.636 C 185.754 460.952 189.216 460.421 192.607 459.595 C 206.027 456.315 217.624 449.644 227.865 440.466 C 240.068 429.531 249.212 416.322 256.654 401.848 C 260.823 393.738 264.397 385.374 267.124 376.66 C 267.784 374.547 267.767 374.569 265.505 374.531 C 260.624 374.452 255.743 374.351 250.864 374.237 C 243.157 374.058 235.452 373.857 227.744 373.673 C 219.468 373.476 211.193 373.287 202.916 373.09 C 195.118 372.905 187.323 372.71 179.526 372.523 C 171.395 372.326 163.263 372.135 155.129 371.939 C 151.257 371.847 147.383 371.755 143.508 371.66 C 139.537 371.563 135.567 371.469 131.598 371.361 C 131.235 371.352 130.874 371.255 130.33 371.17 C 130.576 370.468 130.74 369.886 130.98 369.337 C 146.175 334.771 161.199 300.129 176.636 265.673 C 186.943 242.671 198.022 220.027 210.219 197.949 C 210.488 197.459 210.885 197.04 211.323 196.562 C 209.339 200.458 207.201 204.352 205.183 208.309 C 200.461 217.578 195.741 226.851 191.123 236.173 C 187.992 242.502 185.005 248.904 182.007 255.298 C 179.191 261.3 176.399 267.31 173.678 273.356 C 169.469 282.719 165.31 292.106 161.164 301.497 C 158.112 308.414 155.109 315.35 152.095 322.285 C 148.689 330.112 145.31 337.953 141.899 345.775 C 139.082 352.233 136.233 358.678 133.399 365.129 C 132.635 366.868 131.872 368.607 131.035 370.51 C 131.715 370.51 132.227 370.502 132.737 370.511 C 139.856 370.606 146.976 370.688 154.095 370.804 C 158.006 370.868 161.916 370.989 165.825 371.085 C 169.878 371.181 173.932 371.276 177.985 371.373 C 181.847 371.466 185.709 371.567 189.572 371.66 C 193.771 371.759 197.967 371.849 202.164 371.95 C 205.836 372.04 209.507 372.145 213.179 372.233 C 217.469 372.335 221.762 372.422 226.056 372.526 C 229.727 372.613 233.398 372.72 237.068 372.808 C 241.362 372.911 245.656 372.992 249.95 373.102 C 252.804 373.176 255.66 373.294 258.515 373.386 C 261.608 373.485 264.708 373.524 267.795 373.729 C 268.287 373.761 268.923 374.452 269.164 374.985 C 270.447 377.831 271.639 380.719 272.836 383.604 C 274.875 388.513 276.894 393.424 278.915 398.34 C 281.818 405.41 284.736 412.475 287.613 419.558 C 291.208 428.409 294.83 437.25 298.312 446.15 C 300.023 450.523 301.458 455.008 302.982 459.457 C 303.42 460.741 302.975 461.31 301.647 461.384 C 298.188 461.576 294.732 461.797 291.271 461.95 C 288.131 462.088 284.985 462.21 281.843 462.237 C 267.917 462.355 253.994 462.492 240.069 462.514 C 231.51 462.527 222.951 462.353 214.391 462.244 C 208.325 462.164 202.255 462.065 196.188 461.955 C 191.656 461.872 187.123 461.755 182.459 461.636 Z" style=""></path>
    <path fill="#0093FB" opacity="1.000000" stroke="none" d="M 290.153 257.036 C 290.411 257.255 290.774 257.551 290.893 257.923 C 291.511 259.834 292.167 261.743 292.619 263.697 C 293.081 265.69 292.677 266.632 290.76 267.332 C 288.073 268.311 285.318 269.349 282.508 269.72 C 274.305 270.797 266.074 271.764 257.823 272.382 C 248.134 273.105 238.412 273.425 228.705 273.882 C 227.702 273.928 227.297 274.465 226.941 275.265 C 222.208 285.897 217.459 296.523 212.712 307.147 C 207.457 318.91 202.199 330.673 196.935 342.432 C 196.743 342.864 196.472 343.264 196.153 343.736 C 195.961 343.558 195.697 343.254 195.765 343.093 C 196.836 340.561 197.942 338.041 199.057 335.524 C 202.125 328.614 205.187 321.703 208.277 314.803 C 210.486 309.863 212.759 304.953 214.959 300.011 C 217.92 293.366 220.835 286.705 223.774 280.053 C 224.625 278.131 225.552 276.241 226.332 274.292 C 226.877 272.929 228.122 273.141 229.061 273.071 C 232.145 272.839 235.247 272.848 238.341 272.727 C 242.662 272.554 246.982 272.364 251.302 272.15 C 254.569 271.987 257.841 271.838 261.1 271.564 C 264.668 271.262 268.226 270.87 271.783 270.436 C 275.275 270.01 278.782 269.615 282.234 268.949 C 284.824 268.448 287.382 267.661 289.874 266.776 C 292.242 265.939 292.619 264.78 291.765 261.899 C 291.291 260.296 290.692 258.729 290.153 257.036 Z" style=""></path>
    <path fill="#0091F8" opacity="1.000000" stroke="none" d="M 341.054 370.339 C 341.348 370.643 341.735 371.019 341.915 371.475 C 349.182 389.953 356.433 408.435 363.677 426.924 C 363.865 427.407 363.94 427.935 364.049 428.56 C 362.854 425.804 361.658 422.935 360.505 420.05 C 358.331 414.611 356.159 409.171 354.025 403.717 C 351.4 397.003 348.823 390.27 346.208 383.555 C 344.505 379.18 342.768 374.817 341.054 370.339 Z" style=""></path>
    <path fill="#0093FB" opacity="1.000000" stroke="none" d="M 281.184 237.473 C 281.529 237.837 282.011 238.251 282.268 238.776 C 283.122 240.534 283.894 242.329 284.679 244.225 C 283.513 242.088 282.364 239.832 281.184 237.473 Z" style=""></path>
    <path fill="#0091F8" opacity="1.000000" stroke="none" d="M 364.06 429.003 C 364.929 430.947 365.795 433.002 366.639 435.175 C 365.764 433.234 364.908 431.172 364.06 429.003 Z" style=""></path>
    <path fill="#0091F8" opacity="1.000000" stroke="none" d="M 338.466 363.725 C 339.336 365.669 340.2 367.723 341.046 369.895 C 340.17 367.951 339.313 365.894 338.466 363.725 Z" style=""></path>
    <path fill="#0093FB" opacity="1.000000" stroke="none" d="M 284.979 245.241 C 285.655 246.422 286.325 247.71 286.98 249.113 C 286.299 247.935 285.638 246.64 284.979 245.241 Z" style=""></path>
    <path fill="#0093FB" opacity="1.000000" stroke="none" d="M 289.002 254.158 C 289.393 254.857 289.777 255.666 290.142 256.589 C 289.749 255.892 289.373 255.078 289.002 254.158 Z" style=""></path>
    <path fill="#0093FB" opacity="1.000000" stroke="none" d="M 286.991 249.554 C 287.379 250.161 287.764 250.877 288.128 251.704 C 287.736 251.097 287.36 250.377 286.991 249.554 Z" style=""></path>
    <path fill="#0095FF" opacity="1.000000" stroke="none" d="M 211.461 196.534 C 211.708 195.918 212.039 195.244 212.471 194.548 C 212.232 195.174 211.888 195.827 211.461 196.534 Z" style=""></path>
    <path fill="#0091F8" opacity="1.000000" stroke="none" d="M 367.799 438.49 C 368.096 439.004 368.385 439.622 368.655 440.354 C 368.351 439.845 368.07 439.223 367.799 438.49 Z" style=""></path>
    <path fill="#0091F8" opacity="1.000000" stroke="none" d="M 336.452 358.545 C 336.749 359.059 337.039 359.676 337.308 360.408 C 337.006 359.9 336.725 359.277 336.452 358.545 Z" style=""></path>
    <path fill="#0093FB" opacity="1.000000" stroke="none" d="M 288.141 252.139 C 288.435 252.56 288.724 253.086 288.993 253.719 C 288.696 253.302 288.414 252.772 288.141 252.139 Z" style=""></path>
    <path fill="#018FF4" opacity="1.000000" stroke="none" d="M 269.967 216.767 C 270.245 217.099 270.557 217.527 270.86 218.064 C 270.571 217.738 270.284 217.3 269.967 216.767 Z" style=""></path>
    <path fill="#0095FF" opacity="1.000000" stroke="none" d="M 213.746 192.521 C 213.902 192.094 214.14 191.608 214.482 191.098 C 214.333 191.537 214.082 192.002 213.746 192.521 Z" style=""></path>
    <path fill="#0095FF" opacity="1.000000" stroke="none" d="M 212.61 194.522 C 212.759 194.094 212.993 193.615 213.331 193.111 C 213.189 193.55 212.942 194.008 212.61 194.522 Z" style=""></path>
    <path fill="#0091F8" opacity="1.000000" stroke="none" d="M 335.876 357.102 C 336.075 357.337 336.263 357.676 336.439 358.118 C 336.239 357.881 336.055 357.543 335.876 357.102 Z" style=""></path>
    <path fill="#0091F8" opacity="1.000000" stroke="none" d="M 337.316 360.84 C 337.515 361.075 337.708 361.414 337.881 361.856 C 337.676 361.621 337.492 361.28 337.316 360.84 Z" style=""></path>
    <path fill="#0091F8" opacity="1.000000" stroke="none" d="M 337.891 362.279 C 338.09 362.514 338.28 362.852 338.454 363.294 C 338.251 363.058 338.067 362.718 337.891 362.279 Z" style=""></path>
    <path fill="#0091F8" opacity="1.000000" stroke="none" d="M 335.301 355.664 C 335.499 355.899 335.689 356.237 335.865 356.679 C 335.664 356.444 335.479 356.104 335.301 355.664 Z" style=""></path>
    <path fill="#0091F8" opacity="1.000000" stroke="none" d="M 334.725 354.225 C 334.925 354.463 335.116 354.799 335.29 355.241 C 335.089 355.007 334.904 354.666 334.725 354.225 Z" style=""></path>
    <path fill="#0091F8" opacity="1.000000" stroke="none" d="M 334.15 352.787 C 334.349 353.023 334.544 353.36 334.717 353.802 C 334.513 353.568 334.326 353.229 334.15 352.787 Z" style=""></path>
    <path fill="#0091F8" opacity="1.000000" stroke="none" d="M 366.647 435.61 C 366.847 435.846 367.038 436.183 367.212 436.626 C 367.009 436.389 366.825 436.05 366.647 435.61 Z" style=""></path>
    <path fill="#0091F8" opacity="1.000000" stroke="none" d="M 333.287 350.488 C 333.483 350.724 333.672 351.062 333.848 351.504 C 333.653 351.266 333.465 350.929 333.287 350.488 Z" style=""></path>
    <path fill="#0091F8" opacity="1.000000" stroke="none" d="M 367.222 437.046 C 367.419 437.285 367.611 437.621 367.785 438.063 C 367.584 437.828 367.4 437.488 367.222 437.046 Z" style=""></path>
    <path fill="#0091F8" opacity="1.000000" stroke="none" d="M 368.66 440.787 C 368.861 441.022 369.054 441.359 369.228 441.802 C 369.021 441.565 368.836 441.226 368.66 440.787 Z" style=""></path>
    <path fill="#0091F8" opacity="1.000000" stroke="none" d="M 374.124 454.59 C 374.319 454.826 374.507 455.164 374.685 455.606 C 374.488 455.368 374.303 455.031 374.124 454.59 Z" style=""></path>
    <path fill="#0091F8" opacity="1.000000" stroke="none" d="M 374.988 456.889 C 375.187 457.126 375.378 457.462 375.553 457.904 C 375.35 457.67 375.165 457.329 374.988 456.889 Z" style=""></path>
    <path fill="#0091F8" opacity="1.000000" stroke="none" d="M 373.549 453.152 C 373.744 453.387 373.933 453.725 374.109 454.167 C 373.912 453.932 373.728 453.592 373.549 453.152 Z" style=""></path>
    <path fill="#0091F8" opacity="1.000000" stroke="none" d="M 372.974 451.713 C 373.172 451.95 373.362 452.287 373.536 452.729 C 373.337 452.495 373.152 452.154 372.974 451.713 Z" style=""></path>
    <path fill="#0091F8" opacity="1.000000" stroke="none" d="M 372.398 450.275 C 372.598 450.51 372.789 450.848 372.962 451.29 C 372.761 451.057 372.577 450.717 372.398 450.275 Z" style=""></path>
    <path fill="#0091F8" opacity="1.000000" stroke="none" d="M 371.823 448.839 C 372.023 449.075 372.217 449.411 372.39 449.853 C 372.186 449.618 372.002 449.278 371.823 448.839 Z" style=""></path>
    <path fill="#0091F8" opacity="1.000000" stroke="none" d="M 375.563 458.322 C 375.749 458.517 375.93 458.809 376.12 459.192 C 375.939 458.995 375.748 458.705 375.563 458.322 Z" style=""></path>
    <path fill="#0091F8" opacity="1.000000" stroke="none" d="M 370.961 446.537 C 371.156 446.773 371.344 447.11 371.52 447.552 C 371.322 447.316 371.138 446.977 370.961 446.537 Z" style=""></path>
    <path fill="#0091F8" opacity="1.000000" stroke="none" d="M 370.385 445.098 C 370.582 445.335 370.77 445.673 370.947 446.115 C 370.747 445.88 370.563 445.539 370.385 445.098 Z" style=""></path>
    <path fill="#0091F8" opacity="1.000000" stroke="none" d="M 369.81 443.66 C 370.01 443.896 370.199 444.236 370.374 444.676 C 370.172 444.442 369.987 444.103 369.81 443.66 Z" style=""></path>
    <path fill="#0091F8" opacity="1.000000" stroke="none" d="M 369.234 442.225 C 369.434 442.46 369.626 442.797 369.8 443.239 C 369.597 443.003 369.412 442.664 369.234 442.225 Z" style=""></path>
    <path fill="#0095FF" opacity="1.000000" stroke="none" d="M 215.757 189.074 C 215.82 188.837 215.966 188.55 216.209 188.223 C 216.152 188.464 215.995 188.74 215.757 189.074 Z" style=""></path>
    <path fill="#018FF4" opacity="1.000000" stroke="none" d="M 272.554 221.358 C 272.731 221.506 272.938 221.749 273.154 222.091 C 272.968 221.946 272.777 221.699 272.554 221.358 Z" style=""></path>
    <path fill="#018FF4" opacity="1.000000" stroke="none" d="M 271.403 219.347 C 271.58 219.496 271.788 219.738 272.003 220.082 C 271.817 219.938 271.626 219.69 271.403 219.347 Z" style=""></path>
    <path fill="#0095FF" opacity="1.000000" stroke="none" d="M 217.194 186.772 C 217.26 186.536 217.403 186.245 217.649 185.921 C 217.592 186.164 217.433 186.441 217.194 186.772 Z" style=""></path>
    <path fill="#0095FF" opacity="1.000000" stroke="none" d="M 214.893 190.512 C 214.958 190.276 215.104 189.984 215.348 189.662 C 215.291 189.905 215.134 190.182 214.893 190.512 Z" style=""></path>
    <path fill="#0095FF" opacity="1.000000" stroke="none" d="M 218.633 184.471 C 218.697 184.236 218.843 183.947 219.086 183.62 C 219.026 183.861 218.872 184.139 218.633 184.471 Z" style=""></path>
    <path fill="#018FF4" opacity="1.000000" stroke="none" d="M 269.103 215.319 C 269.279 215.467 269.486 215.711 269.702 216.058 C 269.517 215.911 269.325 215.663 269.103 215.319 Z" style=""></path>
    <path fill="#0093FB" opacity="1.000000" stroke="none" d="M 280.917 236.862 C 281 236.922 281.099 237.08 281.204 237.335 C 281.114 237.272 281.025 237.116 280.917 236.862 Z" style=""></path>
    <path fill="#0095FF" opacity="1.000000" stroke="none" d="M 356.834 169.673 C 356.752 169.61 356.682 169.458 356.598 169.219 C 356.672 169.282 356.761 169.431 356.834 169.673 Z" style=""></path>
    <path fill="#0091F8" opacity="1.000000" stroke="none" d="M 374.698 456.02 C 374.79 456.08 374.874 456.234 374.957 456.482 C 374.869 456.42 374.778 456.267 374.698 456.02 Z" style=""></path>
    <path fill="#0091F8" opacity="1.000000" stroke="none" d="M 332.979 349.614 C 333.057 349.676 333.148 349.83 333.249 350.077 C 333.168 350.016 333.079 349.863 332.979 349.614 Z" style=""></path>
    <path fill="#0091F8" opacity="1.000000" stroke="none" d="M 333.863 351.918 C 333.954 351.978 334.039 352.132 334.123 352.378 C 334.035 352.317 333.944 352.165 333.863 351.918 Z" style=""></path>
    <path fill="#0091F8" opacity="1.000000" stroke="none" d="M 371.536 447.97 C 371.628 448.03 371.712 448.184 371.795 448.428 C 371.705 448.368 371.616 448.216 371.536 447.97 Z" style=""></path>
    <path fill="#0095FF" opacity="1.000000" stroke="none" d="M 356.543 168.831 C 356.51 168.818 356.469 168.727 356.361 168.593 C 356.377 168.617 356.456 168.684 356.543 168.831 Z" style=""></path>
    <path fill="#0095FF" opacity="1.000000" stroke="none" d="M 355.97 167.682 C 355.911 167.696 355.845 167.63 355.739 167.504 C 355.787 167.496 355.877 167.549 355.97 167.682 Z" style=""></path>
    <path fill="#0095FF" opacity="1.000000" stroke="none" d="M 217.738 185.9 C 217.714 185.845 217.766 185.764 217.878 185.646 C 217.899 185.698 217.856 185.787 217.738 185.9 Z" style=""></path>
    <path fill="#018FF4" opacity="1.000000" stroke="none" d="M 268.884 215.016 C 268.944 215.003 269.012 215.067 269.118 215.194 C 269.067 215.205 268.978 215.149 268.884 215.016 Z" style=""></path>
    <path fill="#018FF4" opacity="1.000000" stroke="none" d="M 268.598 214.445 C 268.641 214.451 268.689 214.539 268.794 214.677 C 268.769 214.662 268.687 214.592 268.598 214.445 Z" style=""></path>
    <path fill="#018FF4" opacity="1.000000" stroke="none" d="M 268.347 213.876 C 268.355 213.918 268.371 214.032 268.477 214.14 C 268.487 214.083 268.414 214.023 268.347 213.876 Z" style=""></path>
    <path fill="#0095FF" opacity="1.000000" stroke="none" d="M 213.428 193.091 C 213.401 193.033 213.451 192.95 213.565 192.834 C 213.585 192.888 213.543 192.977 213.428 193.091 Z" style=""></path>
    <path fill="#0095FF" opacity="1.000000" stroke="none" d="M 214.576 191.076 C 214.551 191.02 214.602 190.939 214.716 190.821 C 214.735 190.875 214.692 190.963 214.576 191.076 Z" style=""></path>
    <path fill="#0095FF" opacity="1.000000" stroke="none" d="M 215.44 189.64 C 215.414 189.581 215.464 189.501 215.578 189.382 C 215.597 189.436 215.555 189.525 215.44 189.64 Z" style=""></path>
    <path fill="#0095FF" opacity="1.000000" stroke="none" d="M 216.302 188.202 C 216.275 188.143 216.328 188.062 216.442 187.947 C 216.461 187.998 216.418 188.088 216.302 188.202 Z" style=""></path>
    <path fill="#0095FF" opacity="1.000000" stroke="none" d="M 216.893 187.357 C 216.881 187.323 216.936 187.244 217.033 187.107 C 217.038 187.137 216.998 187.227 216.893 187.357 Z" style=""></path>
    <path fill="#018FF4" opacity="1.000000" stroke="none" d="M 269.745 216.454 C 269.807 216.438 269.876 216.505 269.982 216.633 C 269.93 216.642 269.839 216.587 269.745 216.454 Z" style=""></path>
    <path fill="#0095FF" opacity="1.000000" stroke="none" d="M 218.329 185.059 C 218.32 185.021 218.373 184.946 218.472 184.808 C 218.476 184.837 218.435 184.925 218.329 185.059 Z" style=""></path>
    <path fill="#0095FF" opacity="1.000000" stroke="none" d="M 219.175 183.599 C 219.152 183.544 219.205 183.462 219.316 183.344 C 219.338 183.397 219.295 183.485 219.175 183.599 Z" style=""></path>
    <path fill="#0095FF" opacity="1.000000" stroke="none" d="M 219.766 182.758 C 219.757 182.723 219.812 182.644 219.91 182.507 C 219.914 182.535 219.874 182.625 219.766 182.758 Z" style=""></path>
    <path fill="#0095FF" opacity="1.000000" stroke="none" d="M 220.342 181.894 C 220.332 181.86 220.387 181.78 220.485 181.643 C 220.489 181.674 220.45 181.763 220.342 181.894 Z" style=""></path>
    <path fill="#0095FF" opacity="1.000000" stroke="none" d="M 220.917 181.032 C 220.907 180.997 220.962 180.917 221.062 180.78 C 221.064 180.81 221.022 180.899 220.917 181.032 Z" style=""></path>
    <path fill="#0095FF" opacity="1.000000" stroke="none" d="M 221.492 180.171 C 221.482 180.135 221.538 180.057 221.637 179.917 C 221.639 179.947 221.597 180.038 221.492 180.171 Z" style=""></path>
    <path fill="#0095FF" opacity="1.000000" stroke="none" d="M 244.709 179.318 C 244.737 179.344 244.772 179.455 244.898 179.592 C 244.898 179.548 244.809 179.477 244.709 179.318 Z" style=""></path>
    <path fill="#0095FF" opacity="1.000000" stroke="none" d="M 356.259 168.256 C 356.222 168.245 356.179 168.154 356.072 168.019 C 356.089 168.041 356.171 168.109 356.259 168.256 Z" style=""></path>
    <path fill="#0093FB" opacity="1.000000" stroke="none" d="M 278.407 231.992 C 278.41 232.051 278.419 232.18 278.531 232.283 C 278.563 232.193 278.489 232.13 278.407 231.992 Z" style=""></path>
    <path fill="#0093FB" opacity="1.000000" stroke="none" d="M 280.672 236.585 C 280.738 236.568 280.81 236.63 280.911 236.76 C 280.852 236.772 280.765 236.717 280.672 236.585 Z" style=""></path>
    <path fill="#0093FB" opacity="1.000000" stroke="none" d="M 280.389 236.012 C 280.428 236.021 280.475 236.11 280.581 236.246 C 280.558 236.227 280.476 236.16 280.389 236.012 Z" style=""></path>
    <path fill="#0093FB" opacity="1.000000" stroke="none" d="M 280.101 235.437 C 280.14 235.445 280.187 235.533 280.292 235.671 C 280.272 235.653 280.19 235.585 280.101 235.437 Z" style=""></path>
    <path fill="#0093FB" opacity="1.000000" stroke="none" d="M 279.814 234.862 C 279.853 234.869 279.9 234.96 280.006 235.097 C 279.983 235.078 279.901 235.01 279.814 234.862 Z" style=""></path>
    <path fill="#0093FB" opacity="1.000000" stroke="none" d="M 279.526 234.286 C 279.565 234.294 279.612 234.385 279.717 234.522 C 279.697 234.502 279.615 234.435 279.526 234.286 Z" style=""></path>
    <path fill="#0093FB" opacity="1.000000" stroke="none" d="M 279.24 233.71 C 279.278 233.722 279.322 233.812 279.43 233.949 C 279.41 233.927 279.329 233.858 279.24 233.71 Z" style=""></path>
    <path fill="#0093FB" opacity="1.000000" stroke="none" d="M 278.953 233.135 C 278.989 233.148 279.032 233.241 279.139 233.374 C 279.123 233.35 279.041 233.283 278.953 233.135 Z" style=""></path>
    <path fill="#0093FB" opacity="1.000000" stroke="none" d="M 278.668 232.561 C 278.704 232.573 278.747 232.665 278.852 232.799 C 278.835 232.775 278.754 232.708 278.668 232.561 Z" style=""></path>
    <path fill="#0093FB" opacity="1.000000" stroke="none" d="M 284.703 244.639 C 284.743 244.648 284.789 244.737 284.892 244.874 C 284.872 244.855 284.79 244.787 284.703 244.639 Z" style=""></path>
    <path fill="#0093FB" opacity="1.000000" stroke="none" d="M 278.12 231.417 C 278.131 231.461 278.148 231.577 278.255 231.672 C 278.26 231.617 278.184 231.562 278.12 231.417 Z" style=""></path>
    <path fill="#0093FB" opacity="1.000000" stroke="none" d="M 277.835 230.842 C 277.846 230.888 277.86 231.003 277.967 231.095 C 277.971 231.038 277.898 230.984 277.835 230.842 Z" style=""></path>
    <path fill="#018FF4" opacity="1.000000" stroke="none" d="M 273.201 222.494 C 273.263 222.481 273.318 222.555 273.407 222.684 C 273.375 222.677 273.291 222.623 273.201 222.494 Z" style=""></path>
    <path fill="#018FF4" opacity="1.000000" stroke="none" d="M 272.335 221.055 C 272.397 221.041 272.465 221.104 272.569 221.233 C 272.516 221.244 272.428 221.19 272.335 221.055 Z" style=""></path>
    <path fill="#018FF4" opacity="1.000000" stroke="none" d="M 272.046 220.482 C 272.09 220.489 272.141 220.574 272.244 220.716 C 272.216 220.701 272.135 220.632 272.046 220.482 Z" style=""></path>
    <path fill="#018FF4" opacity="1.000000" stroke="none" d="M 271.184 219.044 C 271.246 219.029 271.314 219.09 271.42 219.218 C 271.364 219.23 271.278 219.177 271.184 219.044 Z" style=""></path>
    <path fill="#018FF4" opacity="1.000000" stroke="none" d="M 270.898 218.468 C 270.941 218.474 270.989 218.563 271.094 218.702 C 271.067 218.686 270.985 218.619 270.898 218.468 Z" style=""></path>
  </g>
</svg>