<svg viewBox="0 0 500 500" xmlns="http://www.w3.org/2000/svg">
  <path fill="#0099ff" fill-opacity="1" d="M -172.788 238.969 L -151.955 250 C -131.121 261.031 -89.455 283.091 -47.788 261.031 C -6.121 238.969 26.749 182.839 127.471 142.632 C 228.193 102.425 160.545 238.969 202.212 257.376 C 243.879 275.507 285.545 246.553 306.379 231.593 L 327.212 216.909 L 327.212 327.212 L 306.379 327.212 C 285.545 327.212 243.879 327.212 202.212 327.212 C 160.545 327.212 118.879 327.212 77.212 327.212 C 35.545 327.212 -6.121 327.212 -47.788 327.212 C -89.455 327.212 -131.121 327.212 -151.955 327.212 L -172.788 327.212 L -172.788 238.969 Z" style="" transform="matrix(0, 1, -1, 0, 327.211999, 172.787974)"></path>
</svg>