<svg viewBox="0 0 512 430" xmlns="http://www.w3.org/2000/svg" xmlns:bx="https://boxy-svg.com">
  <defs>
    <bx:guide x="0" y="256" angle="0"></bx:guide>
    <bx:guide x="512" y="256" angle="0"></bx:guide>
    <bx:guide x="256" y="0" angle="90"></bx:guide>
    <bx:guide x="256" y="430" angle="90"></bx:guide>
  </defs>
  <path fill-rule="evenodd" clip-rule="evenodd" d="M 252.259 2.777 C 250.959 4.303 245.359 13.407 239.813 23.007 C 234.268 32.607 217.975 60.085 203.609 84.068 C 189.242 108.049 176.749 129.292 175.847 131.272 C 172.697 138.177 169.388 135.183 157.419 114.596 C 125.618 59.897 116.923 46.015 114.465 46.015 C 112.827 46.015 106.749 54.804 97.73 70.212 C 89.94 83.521 59.838 133.917 59.838 133.917 C 46.787 155.648 35.824 174.569 35.475 175.965 C 35.125 177.362 45.294 195.999 58.072 217.38 C 70.851 238.761 83.47 260.182 86.117 264.982 L 90.928 273.708 L 55.287 333.21 C 8.945 410.579 0 425.941 0 428.164 C 0 429.536 28.173 430 111.711 430 C 173.153 430 223.888 429.534 224.458 428.964 C 225.772 427.654 223.38 423.477 177.498 346.967 C 132.861 272.532 133.833 274.371 136.313 268.928 C 140.135 260.553 170.178 211.033 171.439 211.033 C 172.162 211.033 184.757 231.205 199.428 255.858 C 225.988 300.489 276.623 385.431 293.777 414.133 L 302.786 429.207 L 405.92 429.617 C 462.643 429.844 509.968 429.679 511.086 429.252 C 513.874 428.188 512.354 425.391 476.075 364.787 C 459.149 336.512 437.899 300.881 428.855 285.609 C 419.809 270.337 403.008 242.133 391.518 222.934 C 380.029 203.734 360.024 170.175 347.065 148.358 C 334.106 126.541 318.356 100.122 312.065 89.648 C 305.773 79.177 291.191 54.723 279.66 35.304 C 268.129 15.886 257.778 0 256.658 0 C 255.538 0 253.558 1.251 252.259 2.777 Z M 284.295 113.847 C 314.36 164.506 338.629 205.289 384.622 282.435 C 434.971 366.89 449.492 391.54 449.492 392.563 C 449.492 393.082 421.269 393.505 386.774 393.505 L 324.055 393.505 L 320.197 387.398 C 316.701 381.867 296.369 347.772 220.327 219.923 C 206.366 196.45 194.622 176.024 194.231 174.531 C 193.391 171.32 253.591 69.815 256.334 69.815 C 257.34 69.815 269.922 89.629 284.295 113.847 Z M 133.086 144.507 C 142.074 159.715 149.142 173.288 148.79 174.67 C 147.536 179.585 113.858 234.834 112.138 234.797 C 110.005 234.751 77.827 180.795 77.827 177.265 C 77.827 175.283 96.25 142.813 110.715 119.302 C 111.957 117.283 113.82 115.908 114.857 116.244 C 115.893 116.581 124.096 129.298 133.086 144.507 Z M 138.202 352.101 C 151.313 374.273 161.747 392.708 161.385 393.069 C 160.357 394.098 145.334 394.307 102.727 393.891 C 70.602 393.576 63.394 393.109 63.814 391.367 C 65.11 385.965 110.608 311.031 112.374 311.388 C 113.467 311.609 125.09 329.93 138.202 352.101 Z" bx:origin="0.5 0.5"></path>
</svg>